<?xml version="1.0" encoding="utf-8"?>
<!-- Generator: Adobe Illustrator 24.0.2, SVG Export Plug-In . SVG Version: 6.00 Build 0)  -->
<svg version="1.1" id="Capa_1" xmlns="http://www.w3.org/2000/svg" xmlns:xlink="http://www.w3.org/1999/xlink" x="0px" y="0px"
	 viewBox="0 0 409 512" style="enable-background:new 0 0 409 512;" xml:space="preserve">
<style type="text/css">
	.st0{fill:#FDDEB0;}
	.st1{fill:#FDD79B;}
	.st2{fill:#F37C7C;}
	.st3{fill:#EE6161;}
	.st4{fill:#F9F7F8;}
	.st5{fill:#EFEDEF;}
</style>
<g>
	<path class="st0" d="M383.3,151.8l0.2-14.7c0.4-15.2-12.5-27.3-27.6-25.8l0,0c-1,0.1-2-0.7-2-1.7l-0.4-8c-0.7-14.1-12.8-25-26.9-24
		l-4.1,0.3c-0.9,0.1-1.8-0.6-1.9-1.5l-2-12.3c-3.4-21.1-24.1-34.7-44.8-29.5l-2.4,0.6c-1,0.2-1.9-0.2-2.4-1.1l-0.3-0.6
		c-2.8-5.3-8.4-8.6-14.4-8.6h-1.9c-0.6,0-1.3-0.3-1.7-0.8l-2.5-3.1C225.7-7,183.3-7,160.8,20.9l-2.5,3.1c-0.4,0.5-1,0.8-1.7,0.8
		h-1.9c-6,0-11.5,3.3-14.4,8.6l-0.3,0.6c-0.5,0.9-1.5,1.3-2.4,1.1l-2.4-0.6c-20.7-5.2-41.4,8.5-44.8,29.5l-2,12.3
		c-0.2,0.9-1,1.6-1.9,1.5l-4.1-0.3c-14.1-1-26.3,9.9-26.9,24l-0.4,8c0,1-1,1.8-2,1.7l0,0c-15.1-1.4-28,10.7-27.6,25.8l0.2,14.7
		l4.7,29.9h349.2L383.3,151.8z"/>
	<g>
		<path class="st1" d="M67.8,164.7l-0.2-14.7c-0.4-15.2,12.5-27.3,27.6-25.8c1.1,0.1,2-0.7,2.1-1.8l0.4-7.9
			c0.7-14.1,12.8-25,26.9-24l4.1,0.3c0.9,0.1,1.8-0.6,1.9-1.5l2-12.3c3.4-21.1,24.1-34.7,44.8-29.5l1.8,0.4c1.3,0.3,2.7-0.3,3.3-1.5
			c2.8-5.3,8.4-8.6,14.4-8.6h1.9c0.6,0,1.3-0.3,1.7-0.8l2.5-3.1c9.9-12.2,23.6-19.1,37.7-20.6C217.2-6.6,181-4.1,160.8,20.9
			l-2.5,3.1c-0.4,0.5-1,0.8-1.7,0.8h-1.9c-6,0-11.5,3.3-14.4,8.6l-0.3,0.6c-0.5,0.9-1.5,1.3-2.4,1.1l-2.4-0.6
			c-20.7-5.2-41.4,8.5-44.8,29.5l-2,12.3c-0.2,0.9-1,1.6-1.9,1.5l-4.1-0.3c-14.1-1-26.3,9.9-26.9,24l-0.4,8c0,1-1,1.8-2,1.7l0,0
			c-15.1-1.4-28,10.7-27.6,25.8l0.2,14.7l4.7,29.9h40L67.8,164.7z"/>
	</g>
	<g>
		<path class="st2" d="M380,167.4H24.7V189L73.5,501c1,6.3,6.4,11,12.8,11h37.5l5-7.7l35-2.7l14.3,10.3h52.8l8.4-8l43,1.5l2.9,6.5
			h37.5c6.4,0,11.8-4.7,12.8-11L384.3,189L380,167.4z"/>
		<path class="st3" d="M384.3,189l-4.2-21.6H74.9v13.2l-2.1-13.2H24.7V189L73.5,501c1,6.3,6.4,11,12.8,11h37.5l3.3-9.1l46.7-0.6
			l4.4,9.7h52.8l14.1-11.2l32.5,2.7l7.8,8.5h37.5c6.4,0,11.8-4.7,12.8-11l2.6-16.8L175,484.3c-29.9,0-55.4-21.8-60.1-51.3
			L86.6,254.5c-3.7-23.6,14.5-44.9,38.4-44.9h256.1L384.3,189z"/>
		<path class="st4" d="M393.2,189H16.8c-6.3,0-11.5-5.1-11.5-11.5V166c0-6.3,5.1-11.5,11.5-11.5h376.3c6.3,0,11.5,5.1,11.5,11.5
			v11.4C404.7,183.8,399.5,189,393.2,189z"/>
		<g id="XMLID_176_">
			<g>
				<g>
					<path class="st4" d="M167.8,189l10.3,323h-54.3L92.2,189L167.8,189z"/>
					<g>
						<g>
							<path class="st5" d="M168.4,209.6l-0.7-20.6H92.2l3.3,34.2c7.1-8.2,17.6-13.5,29.5-13.5H168.4z"/>
						</g>
					</g>
					<path class="st4" d="M316.8,189l-31.5,323h-54.3l10.3-323L316.8,189z"/>
					<g>
						<path class="st5" d="M316.8,189h-75.6l-0.7,20.6h74.2L316.8,189z"/>
					</g>
				</g>
			</g>
		</g>
		<g>
			<path class="st1" d="M204.5,87.5c-9.5,0-18.5-4.2-24.7-11.4c-2.8-3.3-2.3-8.1,0.9-10.9c3.3-2.8,8.1-2.3,10.9,0.9
				c3.2,3.8,7.9,6,12.8,6c5,0,9.6-2.2,12.8-6c2.8-3.3,7.6-3.7,10.9-0.9c3.3,2.8,3.7,7.6,0.9,10.9C223,83.3,214,87.5,204.5,87.5z"/>
		</g>
		<g>
			<path class="st1" d="M118.6,128.1c-1.8,0-3.5-0.6-5-1.8c-3.3-2.8-3.7-7.6-0.9-10.9c6.1-7.3,15.1-11.4,24.7-11.4
				c9.5,0,18.5,4.2,24.7,11.4c2.8,3.3,2.3,8.1-0.9,10.9c-3.3,2.8-8.1,2.3-10.9-0.9c-3.2-3.8-7.9-6-12.8-6c-5,0-9.6,2.2-12.8,6
				C123,127.2,120.8,128.1,118.6,128.1z"/>
		</g>
		<g>
			<path class="st1" d="M291.4,128.1c-2.2,0-4.4-0.9-5.9-2.7c-3.2-3.8-7.9-6-12.8-6c-5,0-9.6,2.2-12.8,6c-2.8,3.3-7.6,3.7-10.9,0.9
				c-3.3-2.8-3.7-7.6-0.9-10.9c6.1-7.3,15.1-11.4,24.7-11.4c9.5,0,18.5,4.2,24.7,11.4c2.8,3.3,2.3,8.1-0.9,10.9
				C294.9,127.5,293.2,128.1,291.4,128.1z"/>
		</g>
	</g>
	<g>
		<path class="st5" d="M116.9,441.5l6.9,70.5h54.3l-0.9-27.7l-2.2,0C148,484.4,124.6,466.7,116.9,441.5L116.9,441.5z"/>
		<path class="st5" d="M231.8,484.3l-0.9,27.7h54.3l2.7-27.7L231.8,484.3z"/>
	</g>
</g>
</svg>
