<?xml version="1.0" encoding="utf-8"?>
<!-- Generator: Adobe Illustrator 24.0.2, SVG Export Plug-In . SVG Version: 6.00 Build 0)  -->
<svg version="1.1" id="Capa_1" xmlns="http://www.w3.org/2000/svg" xmlns:xlink="http://www.w3.org/1999/xlink" x="0px" y="0px"
	 viewBox="0 0 1080 1080" style="enable-background:new 0 0 1080 1080;" xml:space="preserve">
<style type="text/css">
	.st0{fill:#202020;}
	.st1{fill:#7F0000;}
</style>
<rect class="st0" width="1080" height="1080"/>
<path class="st1" d="M148.5,268.99h128.76v508.44c0,42.52,10.69,71.04,32.06,85.56c19.68-20.69,29.89-48.62,28.18-77.12V268.99
	h129.26v508.44c2.66,56.47-18.31,111.5-57.88,151.88c-26.17,26.88-62.04,42.14-99.56,42.36c-26.87-0.45-53.16-7.89-76.28-21.6
	c-25.5-14.54-45.85-36.66-58.22-63.28c-16.68-34.08-25.66-71.41-26.32-109.35V268.99z"/>
<path class="st1" d="M381.71,268.99h131.63l46.57,402.64l38.31-402.64h130.95L613.74,972.17H506.25L381.71,268.99z"/>
<path class="st1" d="M708.75,107.83H931.5v104.63h-64.63v264.09l-92.47,1.52V212.46h-65.64V107.83z"/>
<rect x="774.39" y="514.35" class="st1" width="91.29" height="91.29"/>
<rect x="774.39" y="212.46" class="st1" width="92.47" height="271.01"/>
</svg>
