<?xml version="1.0" encoding="utf-8"?>
<!-- Generator: Adobe Illustrator 24.0.2, SVG Export Plug-In . SVG Version: 6.00 Build 0)  -->
<svg version="1.1" id="Capa_1" xmlns="http://www.w3.org/2000/svg" xmlns:xlink="http://www.w3.org/1999/xlink" x="0px" y="0px"
	 viewBox="0 0 400.6 362" style="enable-background:new 0 0 400.6 362;" xml:space="preserve">
<style type="text/css">
	.st0{fill:#F37C7C;}
	.st1{fill:#EE6161;}
	.st2{fill:#F9F7F8;}
	.st3{fill:#EFEDEF;}
</style>
<path class="st0" d="M376,17.4H20.7V39l48.8,312c1,6.3,6.4,11,12.8,11h37.5l5-7.7l35-2.7l14.3,10.3h52.8l8.4-8l43,1.5l2.9,6.5h37.5
	c6.4,0,11.8-4.7,12.8-11L380.3,39L376,17.4z"/>
<path class="st1" d="M380.3,39l-4.2-21.6H70.9v13.2l-2.1-13.2H20.7V39l48.8,312c1,6.3,6.4,11,12.8,11h37.5l3.3-9.1l46.7-0.6l4.4,9.7
	H227l14.1-11.2l32.5,2.7l7.8,8.5h37.5c6.4,0,11.8-4.7,12.8-11l2.6-16.8L171,334.3c-29.9,0-55.4-21.8-60.1-51.3L82.7,104.5
	C79,80.9,97.2,59.6,121.1,59.6h256.1L380.3,39z"/>
<path class="st2" d="M389.2,39H12.8C6.5,39,1.3,33.9,1.3,27.5V16c0-6.3,5.1-11.5,11.5-11.5h376.3c6.3,0,11.5,5.1,11.5,11.5v11.4
	C400.7,33.8,395.5,39,389.2,39z"/>
<g id="XMLID_176_">
	<g>
		<g>
			<path class="st2" d="M163.8,39l10.3,323h-54.3L88.3,39H163.8z"/>
			<g>
				<g>
					<path class="st3" d="M164.4,59.6L163.7,39H88.1l3.3,34.2c7.1-8.2,17.6-13.5,29.5-13.5L164.4,59.6L164.4,59.6z"/>
				</g>
			</g>
			<path class="st2" d="M312.8,39l-31.5,323H227l10.3-323H312.8z"/>
			<g>
				<path class="st3" d="M312.8,39h-75.6l-0.7,20.6h74.2L312.8,39z"/>
			</g>
		</g>
	</g>
</g>
<g>
	<path class="st3" d="M112.9,291.5l6.9,70.5h54.3l-0.9-27.7H171C144,334.4,120.6,316.7,112.9,291.5L112.9,291.5z"/>
	<path class="st3" d="M227.8,334.3l-0.9,27.7h54.3l2.7-27.7H227.8z"/>
</g>
</svg>
